<?xml version="1.0" encoding="UTF-8" standalone="no"?>
<!-- Created with Inkscape (http://www.inkscape.org/) -->

<svg
   xmlns:dc="http://purl.org/dc/elements/1.1/"
   xmlns:cc="http://creativecommons.org/ns#"
   xmlns:rdf="http://www.w3.org/1999/02/22-rdf-syntax-ns#"
   xmlns:svg="http://www.w3.org/2000/svg"
   xmlns="http://www.w3.org/2000/svg"
   xmlns:sodipodi="http://sodipodi.sourceforge.net/DTD/sodipodi-0.dtd"
   xmlns:inkscape="http://www.inkscape.org/namespaces/inkscape"
   version="1.1"
   id="svg4731"
   xml:space="preserve"
   width="800"
   height="800"
   viewBox="0 0 800 800"
   sodipodi:docname="Jordan-flag-brush-stroke.svg"
   inkscape:version="0.92.4 (5da689c313, 2019-01-14)"><metadata
     id="metadata4737"><rdf:RDF><cc:Work
         rdf:about=""><dc:format>image/svg+xml</dc:format><dc:type
           rdf:resource="http://purl.org/dc/dcmitype/StillImage" /><dc:title></dc:title></cc:Work></rdf:RDF></metadata><defs
     id="defs4735"><clipPath
       clipPathUnits="userSpaceOnUse"
       id="clipPath4747"><path
         d="M 0,600 H 600 V 0 H 0 Z"
         id="path4745"
         inkscape:connector-curvature="0" /></clipPath></defs><sodipodi:namedview
     pagecolor="#ffffff"
     bordercolor="#666666"
     borderopacity="1"
     objecttolerance="10"
     gridtolerance="10"
     guidetolerance="10"
     inkscape:pageopacity="0"
     inkscape:pageshadow="2"
     inkscape:window-width="1920"
     inkscape:window-height="1018"
     id="namedview4733"
     showgrid="false"
     inkscape:zoom="0.87878947"
     inkscape:cx="516.94915"
     inkscape:cy="405.08475"
     inkscape:window-x="-8"
     inkscape:window-y="-8"
     inkscape:window-maximized="1"
     inkscape:current-layer="g4739" /><g
     id="g4739"
     inkscape:groupmode="layer"
     inkscape:label="Jordan-flag-ink-publicdomainvectors.org"
     transform="matrix(1.3333333,0,0,-1.3333333,0,800)"><g
       id="g4741"><g
         id="g4743"
         clip-path="url(#clipPath4747)"><path
           d="m 554.174,458.052 c -4.641,-0.506 -9.233,-0.875 -13.007,0 z m 9.404,20.278 c -11.132,-0.591 -25.954,-3.648 -30,4.286 2.051,0.886 10.646,0.692 8.568,2.152 -6.568,1.529 -12.803,-2.876 -17.145,0 4.386,-1.297 7.829,2.264 11.791,3.214 2.234,0.528 4.059,-0.397 6.424,0 1.573,0.258 3.82,1.812 5.348,2.141 2.507,0.521 7.319,-2.059 7.513,2.144 -8.771,-3.008 -17.397,0.629 -25.722,1.069 -3.284,0.171 -7.083,-1.496 -10.708,-1.069 -2.095,0.24 -4.6,0.963 -6.43,2.146 -2.126,2.466 0.271,1.176 1.07,3.208 -4.833,-0.207 -12.868,-2.812 -17.14,0 5.556,1.749 11.086,-1.295 16.07,2.14 -3.385,2.283 -10.078,-3.599 -5.361,2.146 -3.597,0.666 -9.948,-1.379 -11.785,1.075 1.787,0.12 9.709,-0.592 6.431,1.063 -4.689,0.668 -8.568,2.146 -12.86,3.223 4.253,0.741 11.872,-1.87 12.86,2.131 -6.234,0.196 -11.841,-2 -17.145,0 3.245,1.417 9.186,0.114 11.79,2.153 -1.9,0.239 -5.366,-1.09 -4.283,2.133 3.578,-0.258 6.75,-2.296 8.57,1.076 -3.644,2.605 -7.552,-1.322 -10.716,2.139 3.41,1.598 9.991,0.012 12.853,2.146 -3.365,-1.227 -2.597,1.691 -4.284,2.144 -1.775,-1.875 -4.594,0.749 -7.499,1.071 -1.309,0.144 -1.511,-1.171 -3.21,-1.071 -5.324,0.315 -10.181,1.964 -12.86,2.14 0.805,2.423 6.003,0.422 8.569,1.07 1.505,-0.083 4.104,0.239 2.147,1.076 -1.782,-0.007 -3.576,0 -5.356,0 -1.081,0.843 -2.681,0.667 -4.291,3.221 4.989,1.158 8.846,-1.869 10.716,0 0.175,0.157 -8.696,2.146 -9.635,1.07 -1.377,0.056 -1.484,1.365 -3.22,1.07 -2.795,-2.624 -2.365,0.219 -3.21,1.069 -2.27,2.265 -11.086,-2.353 -10.72,2.145 6.375,0.051 13.727,-0.88 16.069,3.215 2.19,-0.975 7.034,-2.151 8.57,1.07 -3.536,-1.515 -2.669,2.183 -4.279,2.14 0.391,0.012 -1.384,-4.096 -4.291,-2.14 0.893,3.435 0.918,2.215 -1.069,4.285 11.338,0.246 23.947,-0.585 31.069,1.064 -8.154,3.711 -16.663,1.503 -25.709,1.075 -29.922,-1.39 -62.636,0.604 -89.999,2.145 8.575,0.706 19.983,-1.421 26.784,1.077 -1.875,0.976 -5.341,0.359 -6.425,2.133 6.726,3.636 20.104,0.61 27.849,3.215 -3.642,1.46 -7.902,0.012 -9.64,0 -2.202,-0.012 -5.65,0.743 -7.493,1.069 -17.711,3.173 -34.938,3.216 -54.644,3.216 -8.521,0 -17.856,0.849 -25.708,0 -3.096,-0.334 -6.494,-1.887 -9.653,-2.139 -7.444,-0.604 -15.163,0.812 -22.499,0 -4.487,-0.504 -8.268,-2.713 -12.843,-3.209 -9.846,-1.077 -20.265,0.225 -30.012,-1.083 -2.284,-0.296 -4.133,-1.736 -6.423,-2.14 -4.31,-0.748 -9.627,0.203 -11.791,0 -3.511,-0.314 -7.35,-1.855 -10.708,-2.139 -5.991,-0.509 -12.359,0.555 -18.21,0 -4.92,-0.471 -10.696,-2.548 -16.082,-3.22 -13.414,-1.662 -26.941,-6.141 -37.487,-5.349 -0.189,-5.946 -8.973,0.956 -8.576,-1.07 0.661,-0.062 1.277,-0.17 1.076,-1.075 -0.283,-1.51 -2.353,-1.221 -3.215,-2.14 -5.041,-0.622 -7.563,-1.152 -10.715,-2.145 -3.398,-1.069 -7.79,-3.467 -9.646,-4.285 -2.85,-1.258 -6.474,-2.039 -9.632,-3.221 -6.431,-2.398 -12.81,-5.758 -18.222,-7.5 -2.774,-0.887 -7.437,-4.537 -9.639,0 0.66,3.271 5.763,2.1 6.43,5.361 -3.247,-0.259 -7.814,-5.915 -9.652,-1.071 0.743,2.122 6.393,-0.666 5.362,3.21 -4.217,1.221 -7.444,-3.228 -8.57,1.076 0.34,2.517 3.315,2.397 4.29,4.291 -5.675,-1.27 -4.844,-2.649 -7.512,1.07 -2.656,3.712 -4.819,10.016 -8.569,7.499 2.365,-0.919 4.373,-7.7 2.153,-9.639 -2.204,4.587 -3.865,9.697 -8.571,11.779 -0.326,-2.103 1.44,-2.127 2.139,-3.21 0.869,-1.36 1.415,-3.907 2.139,-5.36 1.913,-3.831 7.677,-10.489 5.361,-13.93 -0.478,5.398 -3.524,6.851 -5.361,9.645 -2.372,3.6 -2.851,8.28 -6.423,10.715 2.736,-6.826 4.486,-10.494 7.493,-17.146 -0.182,0.416 0.667,1.247 1.07,0 0.101,-0.296 1.74,-3.336 2.085,-4.873 l 187.323,-93.209 h 284.38 c 3.01,0.575 3.224,3.07 1.915,4.168 0.453,-1.774 -4.002,0.095 -4.289,1.07 1.596,0.195 3.949,-0.384 4.289,1.07 -3.372,-0.51 -4.378,1.334 -5.359,3.215 1.749,-0.781 4.654,2.126 2.139,2.132 0.466,-1.767 -3.996,0.102 -4.292,1.083 2.794,0.459 8.242,-0.145 11.791,2.139 6.552,1.97 -6.544,-0.2 -6.43,2.139 3.472,-0.609 4.989,0.737 7.499,1.077 7.225,-0.353 2.392,1.905 -2.138,1.075 -4.831,-1.63 -16.648,-1.9 -21.425,0 6.538,2 16.983,0.937 21.425,2.134 -9.016,1.773 5.071,0.867 4.278,4.291 -2.559,3.315 -5.675,-1.076 -8.569,-1.07 -3.667,0.006 -6.933,2.497 -10.71,3.209 5.889,0.188 12.472,-0.328 15.001,3.221 -0.213,3.353 -6.254,0.893 -7.499,3.21 6.091,0.697 14.974,-1.411 19.277,1.082 -2.284,0.59 -4.962,0.642 -7.811,0.474 0.103,0.077 0.216,0.142 0.311,0.225 h -3.209 c 2.857,2.762 -2.466,1.127 -1.069,5.355 2.125,-0.012 1.358,-2.921 4.278,-2.139 0.478,4.045 -5.588,1.541 -6.418,4.284 4.217,-0.295 7.437,0.409 8.57,3.209 -3.712,0.579 -10.168,-1.592 -10.721,2.146 8.103,0.472 14.049,3.095 19.29,6.423 -2.844,-1.271 -5.952,0.203 -9.638,0"
           style="fill:#231f20;fill-opacity:1;fill-rule:nonzero;stroke:none"
           id="path4749"
           inkscape:connector-curvature="0" /><path
           d="m 68.602,525.476 c -0.926,1.887 -1.48,4.184 -2.146,5.361 -3.13,5.474 0.057,-3.885 -0.636,-6.773 l 1.993,-0.992 c 0.23,0.086 0.432,0.042 0.604,-0.3 l 1.768,-0.88 c -0.5,1.223 -1.019,2.426 -1.583,3.584"
           style="fill:#231f20;fill-opacity:1;fill-rule:nonzero;stroke:none"
           id="path4751"
           inkscape:connector-curvature="0" /><path
           d="M 406.263,354.666 268.712,286.223 h 272.419 c -0.209,2.983 -1.293,6.865 -4.339,4.985 1.757,0.78 4.656,-2.127 2.14,-2.139 -3.222,1.359 -3.687,4.297 -2.14,6.43 1.599,-2.327 5.36,-2.498 5.354,-6.43 4.5,0.981 5.917,-1.116 7.699,-2.846 h 1.51 c -1.575,3.869 -5.983,4.91 -8.139,8.199 1.423,2.626 3.989,-1.174 4.279,1.077 -4.725,3.838 -9.651,7.481 -13.917,11.779 5.875,1.592 4.693,-3.871 8.568,-4.279 2.858,-0.126 -2.956,4.196 -1.069,4.279 1.36,0.063 3.675,-7.594 7.487,-4.279 -5.171,3.025 -7.448,8.966 -11.772,12.848 1.252,1.233 3.788,1.221 6.424,1.076 -0.96,-3.228 2.524,-1.793 4.279,-3.221 2.787,-2.234 4.932,-7.822 7.512,-6.424 -4.378,3.908 -9.267,9.682 -13.93,11.778 -1.062,0.49 -3.687,3.662 -4.285,4.298 -1.245,1.302 -1.467,3.503 -3.214,4.284 3.818,0.548 6.519,-5.542 8.568,-3.214 -0.917,1.32 -6.901,2.963 -4.285,4.284 2.335,-1.284 6.231,-6.562 8.565,-4.284 -2.076,-0.128 -3.179,2.29 -4.28,3.214 -1.371,1.139 -4.485,1.775 -4.285,4.285 3.619,1.711 4.568,-4.549 6.425,-1.076 -3.811,1.554 -6.375,4.341 -8.568,7.506 2.49,0.352 4.616,1.095 5.359,3.209 -4.454,0.195 -5.893,-1.855 -8.575,1.076 -0.78,2.145 2.057,2.077 2.145,3.216 -0.025,-0.285 -2.045,0.591 -2.145,1.069 -0.41,1.969 1.711,4.883 2.145,7.493 -4.241,-1.409 -1.624,11.144 -1.069,11.798 0.603,0.704 3.53,-0.617 3.214,1.063 -1.843,-0.064 -2.748,0.83 -3.214,2.139 4.07,4.492 -0.24,17.384 7.499,18.221 -1.183,5.826 2.258,7.016 4.28,9.634 -1.843,0.427 -2.745,-1.586 -3.211,0 6.463,2.919 14.246,-1.599 19.279,3.215 -7.008,0.579 -12.195,-0.655 -18.209,-1.07 -1.831,2.146 -1.56,8.689 1.07,9.651 8.992,-0.189 14.502,2.668 21.431,3.21 6.261,0.484 11.853,-0.925 13.929,2.144 -7.889,0.832 -10.519,-2.635 -16.068,0 2.012,0.561 8.715,1.875 6.417,3.209 -1.261,-0.157 -2.428,-1.9 -3.209,0 -0.239,3.864 10.369,2.423 7.5,5.355 -4.555,-0.239 -14.68,-2.183 -22.499,0 0.484,0.002 0.915,0.049 1.305,0.123 h -284.38 z"
           style="fill:#ffffff;fill-opacity:1;fill-rule:nonzero;stroke:none"
           id="path4753"
           inkscape:connector-curvature="0" /><path
           d="m 552.856,269.777 c 0.005,0.757 -0.124,1.349 -0.333,1.83 h -3.096 c 1.052,-0.7 2.168,-1.337 3.429,-1.83"
           style="fill:#10985a;fill-opacity:1;fill-rule:nonzero;stroke:none"
           id="path4755"
           inkscape:connector-curvature="0" /><path
           d="m 551.787,284.784 c -0.098,0.526 -0.251,0.995 -0.432,1.439 h -1.51 c 0.572,-0.555 1.18,-1.074 1.942,-1.439"
           style="fill:#10985a;fill-opacity:1;fill-rule:nonzero;stroke:none"
           id="path4757"
           inkscape:connector-curvature="0" /><path
           d="m 138.784,221.572 c 4.672,-0.718 9.464,-1.313 14.45,-1.717 0.15,-1.422 -4.355,-3.227 -1.07,-4.277 0.628,5.618 20.669,2.925 21.43,2.131 0.654,-0.679 -1.976,-2.068 0,-2.131 0.516,1.265 1.133,2.421 2.144,3.201 4.5,-1.037 10.565,0 13.926,0 1.131,0 2.799,-1.175 3.209,-1.07 0.339,0.096 0.704,3.895 3.22,2.146 -0.402,-3.478 -3.762,-2.175 -5.361,-3.209 -0.88,-0.572 0.341,-1.779 -1.068,-2.145 0.401,0.103 -0.555,2.385 -2.141,2.145 -1.396,-0.22 -1.005,-1.736 -2.145,-2.145 -0.308,2.203 -2.862,2.134 -4.285,3.208 -0.427,-1.843 1.586,-2.748 0,-3.208 -7.197,0.335 -11.457,1.025 -18.215,1.077 -1.868,0.006 -3.46,-1.304 -5.36,-1.077 -1.404,0.163 -1.453,1.133 -3.21,1.077 -1.937,-0.077 -2.465,-1.283 -4.29,-1.077 -0.239,0.026 -2.768,2.032 -3.208,2.145 -5.429,1.313 -10.837,0.326 -16.053,0.933 l -6.758,-3.364 c 0.899,0.174 1.733,0.309 2.456,0.286 2.083,-0.08 5.65,-1.661 8.563,-2.147 8.23,-1.327 14.73,-1.639 21.424,-3.207 -5.989,0.95 -3.989,-1.087 -5.354,-3.215 -4.147,1.598 -15.183,1.912 -19.273,0 10.137,-0.994 27.999,-1.233 39.64,-6.438 -4.487,-0.213 -16.184,0.951 -8.577,-2.144 -3.473,-0.604 -5.391,0.327 -6.436,2.144 0.101,-0.338 -2.398,-3.334 -4.278,-2.144 -0.681,0.44 2.001,2.196 0,2.144 -0.56,-0.012 -1.259,-2.194 -3.215,-2.144 -3.838,0.119 -7.431,4.285 -11.784,2.144 1.264,-0.155 3.044,0.19 3.214,-1.06 -12.914,0.96 -26.541,3.595 -38.49,4.78 l -7.057,-3.511 c 4.913,-0.85 10.414,-1.08 10.192,0.869 -2.189,-0.919 -5.913,1.686 -3.22,2.138 4.139,-2.949 9.073,-2.101 13.93,-3.216 0.314,-0.068 1.636,-2.037 2.151,-2.144 1.887,-0.371 4.33,0.597 6.418,0 1.46,-0.403 3.096,-2.732 4.291,-3.203 3.524,-1.421 6.305,-0.421 9.639,-1.069 2.605,1.44 0.667,2.133 2.146,3.202 2.699,0.404 4.744,-1.724 7.5,-2.133 3.958,-0.604 9.161,1.101 14.999,1.064 7.344,-0.038 16.542,-1.523 23.563,0 0.585,0.13 -0.182,2.038 1.082,2.139 5.5,0.484 14.737,-1.541 22.488,-1.07 8.218,0.523 12.251,1.397 16.07,-3.202 -16.083,-3.304 -35.254,-3.24 -52.487,-4.287 -5.172,-0.319 -9.728,-2.395 -13.93,-1.074 0.824,0.238 2.114,0.024 2.14,1.074 -4.601,-2.768 -8.747,0.127 -11.786,-3.226 18.089,-0.492 38.701,1.655 59.993,3.226 4.09,0.297 10.917,0.637 16.07,1.065 11.722,0.983 28.634,6.154 38.575,3.222 -0.823,0.237 -2.239,-1.056 -2.139,-1.083 2.221,-0.433 3.807,1.989 5.355,0 -2.737,-0.479 -4.934,-1.503 -6.431,-3.204 3.812,-0.91 6.418,3.104 7.5,-1.074 -5.172,-0.19 -7.311,-3.404 -10.715,-5.355 5.078,0.549 4.279,1.347 2.146,-2.15 3.045,0.186 4.466,1.961 7.5,2.15 0.005,-1.075 -0.87,-1.282 -1.077,-2.15 3.605,-0.115 6.613,3.112 8.57,2.15 0.327,-0.163 -1.12,-2.15 -1.063,-2.15 2.945,-0.147 3.636,0.728 7.5,1.075 -0.064,-1.373 -1.372,-1.486 -1.076,-3.209 3.813,-1.667 0.661,3.636 3.215,3.209 2.221,-0.642 7.04,1.321 7.506,-1.075 -3.039,0.892 -2.787,-1.511 -5.361,-1.07 -1.327,-3.46 3.467,-0.819 2.145,-4.286 -1.749,0.788 -4.667,-2.126 -2.145,-2.139 0.145,1.762 7.356,1.762 7.493,0 -2.955,1.41 -3.667,-4.24 -2.132,-1.071 3.128,-0.289 3.284,2.423 6.425,2.141 -0.327,-1.297 3.095,-3.693 3.215,-1.07 -5.695,1.788 6.335,2.133 9.632,2.139 -1.805,-3.731 -0.39,-3.743 2.153,-5.36 -1.801,-1.479 -7.111,-4.946 -5.361,-6.425 3.26,4.423 13.71,5.532 13.928,9.646 5.702,0.729 7.588,5.272 15.001,4.285 -0.158,-1.271 -1.913,-2.428 0,-3.215 3.028,3.824 8.224,5.461 10.708,7.5 3.009,2.452 5.746,4.674 8.571,6.43 2.642,1.63 3.668,2.839 5.361,4.278 1.183,1.026 3.126,1.109 4.284,2.152 2.737,2.43 5.821,6.808 7.507,8.563 1.484,1.555 3.27,2.089 4.277,3.222 1.271,1.41 1.901,3.731 3.216,5.353 1.361,1.669 3.027,2.638 4.285,4.293 3.622,4.732 7.11,9.701 9.645,13.922 2.391,3.972 4.624,7.161 5.36,11.779 6.487,2.442 11.529,6.329 19.285,7.507 2.679,-10.219 -1.448,-20.606 -2.146,-31.077 -0.094,-1.352 1.178,-1.473 1.07,-3.208 -0.384,-6.355 -2.359,-14.37 -1.07,-20.354 0.341,-1.591 1.913,-2.497 2.146,-4.291 0.415,-3.241 -1.207,-7.619 1.071,-10.714 -0.19,2.962 1.648,3.685 3.208,2.145 -0.894,-1.247 -1.409,-2.876 -1.064,-5.354 5.821,1.642 2.058,-4.902 2.14,-5.356 -0.021,0.051 1.938,-1.799 2.146,-2.143 3.213,-5.552 -1.391,-12.172 -1.173,-19.095 h 3.747 c 1.674,2.401 0.628,7.524 1.705,10.516 1.081,1.178 4.604,5.262 2.138,6.437 0.334,-1.302 -3.088,-3.699 -3.21,-1.074 0.518,4.472 3.511,6.491 6.431,8.569 -2.164,0.875 0.674,5.651 1.07,7.5 -4.027,0.817 -0.736,-5.689 -5.36,-4.285 0.138,1.779 -3.468,6.812 1.069,6.43 -0.145,-1.271 -1.901,-2.429 0,-3.22 4.581,2.824 5.059,7.215 5.361,9.644 3.316,-2.958 4.128,-9.091 3.208,-11.778 -0.036,-0.134 -2.125,0.101 -2.139,0 -0.15,-2.568 1.31,-5.064 1.069,-7.501 -0.143,-1.522 -1.785,-2.251 -2.138,-4.285 -0.289,-1.742 0.225,-3.617 0,-5.359 4.203,1.471 3.156,6.701 5.361,9.644 0.681,0.902 2.224,0.956 3.01,1.87 -0.805,-0.796 -0.234,4.354 1.28,3.486 0.668,-1.831 3.235,-1.775 4.278,-3.216 -0.639,-1.604 -5.386,-4.473 -3.209,-5.355 1.599,1.258 3.021,2.689 4.279,4.284 1.227,-3.365 -1.68,-2.61 -2.139,-4.284 3.259,-3.36 4.625,6.18 8.57,2.134 0.315,6.831 3.41,10.884 9.652,11.791 1.172,3.109 1.32,7.241 5.348,7.504 -0.175,-2.76 -4.543,-6.787 -2.139,-8.579 1.8,3.8 3.837,7.479 5.359,10.707 0.556,1.202 1.914,2.002 2.141,3.228 0.038,0.22 -1.719,0.786 -1.071,2.133 0.222,0.473 1.7,1.466 2.14,2.154 2.152,3.319 3.109,6.956 6.425,8.568 1.44,-7.897 -3.593,-14.949 -2.146,-19.285 3.171,3.254 2.075,10.79 5.361,13.918 3.216,-8.666 -3.411,-18.365 -2.14,-24.633 2.443,4.341 1.675,9.047 3.21,13.917 0.779,2.474 3.309,4.895 4.283,7.515 1.191,3.17 0.202,4.522 1.076,6.428 1.271,2.743 3.763,6.398 4.287,8.564 0.395,1.686 -0.423,3.686 0,5.353 0.105,0.428 2.005,2.625 2.137,3.222 0.699,3.07 0.109,6.558 1.077,9.639 0.101,0.302 2.014,0.635 2.139,1.071 1.195,4.391 0.338,6.321 1.069,9.644 1.7,7.595 5.657,14.114 6.431,21.431 3.046,0.9 6.499,2.027 7.498,1.069 0.882,-0.836 0.983,-0.32 2.146,-1.069 0.951,-0.61 2.68,-2.913 3.215,-3.216 1.839,-1.056 4.456,-0.954 6.432,-2.144 1.693,-1.02 3.014,-3.699 4.283,-4.285 2.851,-1.303 6.747,-1.04 9.634,-2.14 5.197,-1.976 8.292,-5.701 12.86,-4.285 -3.033,1.605 -4.951,4.329 -9.637,4.285 -3.725,3.939 -7.287,8.129 -11.786,11.785 -0.976,0.779 -3.933,1.012 -5.354,2.132 -1.572,1.247 -3.045,3.322 -3.223,5.36 4.003,-0.685 5.26,-4.73 9.648,-2.138 1.263,-2.02 5.554,-6.506 7.492,-4.285 -1.786,1.738 -4.932,3.234 -7.492,5.354 -2.437,2.015 -6.174,4.229 -5.356,6.425 3.474,-2.976 9.135,-9.394 12.848,-8.563 -3.861,1.169 -1.9,3.227 -3.209,4.278 0.651,-0.515 -2.452,-1.006 -2.14,1.076 6.016,-0.182 -3.724,3.624 0,4.284 1.259,-0.157 2.429,-1.905 3.211,0 -1.128,0.854 -2.962,1.008 -3.82,2.128 h 2.188 c 0.359,-0.536 0.742,-1.049 1.632,-1.052 0.11,0.376 0.157,0.722 0.177,1.052 h 1.838 c -0.65,0.626 -1.326,1.026 -1.999,1.344 -0.058,0.17 -0.118,0.34 -0.197,0.498 h -0.991 c -1.179,0.458 -2.276,0.881 -3.108,2.029 0.094,0.539 0.126,1.474 0.054,2.515 H 268.712 Z"
           style="fill:#10985a;fill-opacity:1;fill-rule:nonzero;stroke:none"
           id="path4759"
           inkscape:connector-curvature="0" /><path
           d="m 65.379,523.33 c 1.016,-1.558 1.825,-0.485 2.434,-0.258 l -1.993,0.992 c -0.084,-0.352 -0.223,-0.613 -0.441,-0.734"
           style="fill:#cb2943;fill-opacity:1;fill-rule:nonzero;stroke:none"
           id="path4761"
           inkscape:connector-curvature="0" /><path
           d="m 99.069,371.408 16.553,-6.147 5.509,16.753 5.508,-16.753 16.552,6.147 -9.683,-14.745 15.133,-9.09 -17.585,-1.633 2.318,-17.481 -12.243,12.707 -12.243,-12.707 2.317,17.481 -17.584,1.633 15.132,9.09 z M 406.263,354.666 268.712,423.108 81.389,516.317 c 0.042,-0.185 0.069,-0.353 0.068,-0.487 -0.014,-0.743 -1.254,-1.692 -1.084,-2.145 1.084,-2.769 7.161,-4.235 3.222,-7.494 -2.417,0.446 0.164,5.871 -3.222,5.361 -0.944,-3.197 3.348,-6.531 1.084,-7.507 -2.179,3.549 -2.745,8.69 -6.432,10.716 -1.472,-2.441 2.762,-4.033 0,-4.286 -1.876,3.453 -3.252,7.532 -4.84,11.417 l -1.768,0.88 c 0.065,-0.129 0.127,-0.286 0.185,-0.511 -0.322,-2.889 4.473,-6.122 1.069,-8.576 0.063,2.315 -1.265,8.613 -3.215,5.361 3.422,-0.807 -1.12,-7.922 1.069,-7.494 0,0.592 0.862,1.214 1.077,0 -0.184,-3.191 2.479,-7.18 1.069,-11.791 -1.347,4.537 -3.24,11.231 -6.43,10.714 -0.731,2.845 -1.694,5.462 -3.216,7.501 -3.687,-3.089 3.435,-8.067 0,-10.708 0.618,3.691 -3.536,6.392 -5.355,9.632 -1.094,1.97 -1.238,4.819 -2.145,6.43 -0.679,1.221 -2.642,2.233 -3.214,3.222 0.508,-0.888 1.188,3.932 -1.071,1.069 3.064,-1.245 -1.73,-1.245 -2.138,0 -0.963,-3.556 5.945,-4.65 3.209,-6.431 0.075,2.637 -2.498,1.643 -4.286,3.21 -3.058,2.699 -5.461,8.771 -8.569,7.506 3.637,-4.215 8.305,-7.406 9.646,-13.93 -2.247,0.301 -2.436,3.429 -3.223,4.285 -1.969,2.177 -1.78,1.258 -4.284,2.139 -0.1,-4.738 5.851,-3.43 5.361,-8.57 0.32,-2.467 -3.095,-1.183 -3.216,-3.209 1.366,-1.566 4.832,-6.494 3.216,-7.499 -2.952,2.044 -6.393,3.616 -7.5,7.499 -6.015,0.189 3.725,-3.611 0,-4.29 -0.013,1.081 -1.882,1.352 -2.146,0 3.228,-3.217 9.734,-8.81 7.506,-13.918 -0.705,3.586 -4.101,4.467 -5.36,7.494 0.704,-7.167 6.223,-15.177 4.284,-21.431 -1.409,4.204 -2.133,11.489 -5.36,10.722 0.296,1.365 1.076,1.478 1.076,3.215 0,6.128 -1.46,-2.46 -1.076,-2.146 -0.806,-0.673 -5.191,4.316 -5.355,3.208 0.14,-3.831 6.003,-7.505 2.14,-11.784 0.214,3.071 0.138,5.839 -3.209,5.361 -1.315,-2.592 2.542,-2.24 2.139,-4.284 -0.069,-0.371 -2.592,-1.116 -2.139,-2.152 0.282,-0.63 3.926,-0.303 3.209,-2.14 -2.221,-0.598 -2.265,-1.673 -1.07,-3.215 -1.302,0.339 -3.688,-3.096 -1.07,-3.215 0.24,0.836 0.026,2.12 1.07,2.145 0.616,-3.466 -0.322,-5.391 -2.139,-6.43 1.305,-3.287 2.28,-7.623 3.001,-11.709 h 1.276 c -0.022,-1.912 -1.289,-5.387 -1.068,-7.212 0.377,-2.958 2.302,-5.676 2.145,-8.564 -0.063,-1.296 -2.247,-1.113 -2.145,-2.152 0.013,-0.082 1.976,0.088 2.145,0 2.335,-1.044 -1.051,-2.479 -1.069,-2.139 0.133,-2.159 1.906,-4.555 2.139,-7.494 0.12,-1.458 -1.277,-3.674 -1.07,-5.354 0.039,-0.289 1.969,-1.278 2.146,-2.152 -0.013,0.057 -1.403,-1.712 -1.076,-3.209 1.705,-7.657 2.787,-18.039 2.145,-27.859 -2.025,0.125 -0.749,3.542 -3.215,3.213 -0.018,-4.812 3.971,-7.77 0,-10.715 3.568,0.744 1.718,-2.207 1.07,-3.208 6.436,-0.49 2.447,-2.63 2.145,-6.43 4.09,-2.328 3.36,0.988 5.354,3.222 0.737,-6.916 -0.697,-12.383 3.223,-12.868 -4.398,-3.076 -0.397,-10.526 0,-16.056 0.056,-0.995 -1.071,-1.99 -1.077,-2.152 -0.062,-2.573 3.109,-6.488 0,-7.499 -1.088,4.391 -1.881,9.267 -2.146,11.783 -0.54,5.197 0.913,13.12 -4.284,13.924 0.718,-12.495 3.07,-29.062 2.145,-39.638 0.057,2.007 -0.823,2.271 -2.145,1.076 0.063,1.371 1.372,1.477 1.076,3.216 -2.926,0.093 -2.165,-1.795 -4.291,0 2.045,-5.023 0.51,-9.773 1.076,-15.007 0.402,-3.781 2.794,-8.715 2.139,-11.779 -2.026,-9.489 -12.18,-8.374 -19.278,-13.93 -0.805,-3.302 2.938,-2.059 2.139,-5.361 -1.751,-0.251 -4.636,-2.437 -6.838,-3.871 -0.228,-0.148 -0.451,-0.291 -0.663,-0.42 -0.371,-0.22 -1.331,-0.726 -2.05,-1.091 3.504,-0.847 6.578,2.742 4.191,-1.048 1.842,1.02 3.723,1.807 5.217,2.559 0.44,0.224 0.852,0.442 1.213,0.662 -0.567,-0.352 -0.768,0.503 0,1.076 1.61,1.189 4.656,2.41 5.36,1.063 -0.056,0.107 -3.347,-1.628 -3.215,-2.139 1.879,-0.966 3.394,2.725 4.153,0.481 -3.514,-0.389 -4.628,-3.176 -7.368,-4.346 4.392,-1.114 8.765,3.304 11.785,0 -2.183,0.918 -6.65,-0.926 -3.216,-2.132 0.013,1.395 2.97,1.357 3.216,0 -2.926,0.773 -2.158,-2.135 -4.285,-2.153 -2.093,2.611 -10.394,1.058 -10.539,-1.596 -0.948,-0.514 -1.754,-1.155 -2.321,-2.038 2.015,-0.72 2.842,-0.79 3.235,-0.61 -0.004,-0.012 -0.01,-0.023 -0.014,-0.034 1.954,0.085 3.058,0.403 3.711,0.805 0.181,-0.048 0.371,-0.101 0.573,-0.161 0.415,1.492 0.849,2.085 1.322,2.374 0.761,-0.153 2.713,-0.224 4.033,0.189 -4.404,-4.53 4.278,-2.007 5.354,-4.284 -1.554,-0.577 -5.53,1.258 -5.354,-1.076 4.089,-1.85 7.047,1.832 7.5,-3.209 -3.486,-0.087 -6.595,-0.547 -8.57,-2.139 3.989,-1.799 6.733,1.661 10.709,2.139 -0.088,-0.005 2.725,-1.188 4.284,-1.067 6.765,0.495 11.208,1.181 17.146,-2.142 -4.813,-2.402 -9.501,3.991 -11.785,-2.144 4.291,1.397 7.048,-1.85 9.646,-2.145 2.214,-0.241 4.731,2.12 6.43,0 -8.733,-3.972 -12.948,3.894 -22.5,0 -2.976,1.602 1.856,4.379 -1.076,5.359 -1.648,-2.247 -6.361,-0.39 -2.145,-3.214 -3.322,-0.121 -3.058,3.366 -7.5,2.144 -1.271,-4.491 4.518,-1.919 5.361,-4.289 -4.323,1.126 -1.34,-2.336 -3.215,-3.21 -3.033,-1.435 -6.707,1.706 -11.785,-1.075 6.123,-0.505 6.266,-0.341 10.709,-2.14 -0.522,3.529 6.185,4.485 6.43,1.069 -1.259,-0.164 -3.033,0.183 -3.215,-1.069 2.033,-2.025 6.247,3.77 8.576,-1.07 -2.026,-0.237 -2.367,1.202 -4.285,1.07 -0.888,-3.908 4.361,-2.277 5.354,-3.221 0.667,-0.618 -1.975,-2.102 0,-2.139 5.103,4.965 6.475,-2.958 11.786,0 -0.504,-4.437 5.014,-2.844 7.505,-4.291 0.114,1.307 0.309,2.541 2.14,2.144 2.34,-0.239 5.763,-4.837 7.5,-2.144 -1.845,-0.051 -2.757,0.829 -3.215,2.144 7.273,1.492 11.545,0.309 16.075,-3.202 -3.611,-0.686 -9.954,1.365 -11.791,-1.071 7.462,-2.132 14.195,2.052 19.278,-3.22 -1.9,-0.245 -5.362,1.075 -4.277,-2.146 16.433,-3.169 31.758,-7.459 48.758,-10.068 l 129.928,64.651 z"
           style="fill:#cb2943;fill-opacity:1;fill-rule:nonzero;stroke:none"
           id="path4763"
           inkscape:connector-curvature="0" /><path
           d="m 129.664,217.709 c -1.662,0.278 -2.794,1.757 -4.278,2.146 -1.68,0.441 -3.675,-0.346 -5.362,0 -1.862,0.378 -3.434,2.644 -5.36,3.215 -1.308,0.391 -2.945,-0.295 -4.279,0 -0.408,0.095 -2.654,1.97 -3.221,2.14 -3.907,1.139 -6.116,0.288 -9.639,1.076 -1.214,0.266 -2.392,2.039 -3.222,2.14 -1.95,0.258 -2.416,-1.007 -4.277,-1.07 -1.203,-0.044 -1.663,1.51 -2.153,0 5.045,-1.265 2.026,-3.108 0,-5.355 7.437,0.938 9.161,-4.372 15,-2.146 -2.077,-3.58 0.39,-0.579 3.221,-1.076 1.41,-0.239 2.177,-1.843 3.222,-2.133 1.611,-0.458 3.775,0.567 5.348,0 0.29,-0.113 0.717,-1.924 1.07,-2.145 2.616,-1.589 5.707,-0.778 8.265,-0.286 l 6.758,3.364 c -0.364,0.041 -0.731,0.071 -1.093,0.13"
           style="fill:#cb2943;fill-opacity:1;fill-rule:nonzero;stroke:none"
           id="path4765"
           inkscape:connector-curvature="0" /><path
           d="m 11.905,278.326 c -0.031,0.008 -0.063,0.014 -0.095,0.022 -1.281,-0.701 -0.768,-0.461 0.095,-0.022"
           style="fill:#cb2943;fill-opacity:1;fill-rule:nonzero;stroke:none"
           id="path4767"
           inkscape:connector-curvature="0" /><path
           d="m 18.279,271.607 h -7.311 c -0.447,-0.295 -0.879,-0.561 -1.29,-0.753 2.549,-0.482 5.085,-0.275 8.601,0.753"
           style="fill:#cb2943;fill-opacity:1;fill-rule:nonzero;stroke:none"
           id="path4769"
           inkscape:connector-curvature="0" /><path
           d="m 93.234,203.786 c 1.598,0.176 3.964,-0.383 4.291,1.076 -9.174,-0.597 -16.095,6.744 -23.569,4.285 5.92,-1.938 12.532,-3.183 18.208,-5.361 -1.901,-0.246 -5.361,1.083 -4.291,-2.151 1.085,-0.637 3.909,-1.405 6.959,-1.932 l 7.057,3.511 c -3.002,0.298 -5.903,0.508 -8.655,0.572"
           style="fill:#cb2943;fill-opacity:1;fill-rule:nonzero;stroke:none"
           id="path4771"
           inkscape:connector-curvature="0" /><path
           d="m 111.205,345.94 -2.317,-17.481 12.243,12.707 12.243,-12.707 -2.318,17.481 17.585,1.633 -15.133,9.09 9.683,14.745 -16.552,-6.147 -5.508,16.753 -5.509,-16.753 -16.553,6.147 9.684,-14.745 -15.132,-9.09 z"
           style="fill:#ffffff;fill-opacity:1;fill-rule:nonzero;stroke:none"
           id="path4773"
           inkscape:connector-curvature="0" /></g></g></g></svg>