<svg xmlns="http://www.w3.org/2000/svg" xmlns:xlink="http://www.w3.org/1999/xlink" width="500" zoomAndPan="magnify" viewBox="0 0 375 374.999991" height="500" preserveAspectRatio="xMidYMid meet" version="1.0"><defs><clipPath id="27d5633e07"><path d="M 3 31 L 371 31 L 371 343.671875 L 3 343.671875 Z M 3 31 " clip-rule="nonzero"/></clipPath></defs><g clip-path="url(#27d5633e07)"><path fill="#004aad" d="M 177.332031 32.46875 C 171.839844 35.1875 169.726562 41.359375 172.445312 46.75 C 173.15625 48.167969 173.121094 48.308594 171.9375 48.660156 C 170.578125 49.0625 139.324219 62.097656 97.355469 79.765625 L 71.972656 90.453125 L 70.746094 88.070312 C 68.511719 83.734375 64.070312 80.84375 59.644531 80.84375 C 47.851562 80.84375 41.488281 93.953125 49.132812 102.5 L 50.40625 103.925781 L 33.992188 144.90625 L 17.574219 185.890625 L 14.386719 185.984375 C 4.691406 186.273438 0.0664062 198.671875 6.867188 206.140625 C 8.535156 207.972656 10.917969 209.128906 13.925781 209.566406 C 16.863281 209.992188 15.425781 207.175781 25.734375 232.730469 C 29.273438 241.507812 36.730469 259.796875 42.304688 273.375 L 52.4375 298.0625 L 51.011719 299.59375 C 47.210938 303.679688 46.460938 308.09375 48.796875 312.671875 C 52.261719 319.453125 62.402344 320.472656 67.191406 314.519531 L 68.9375 312.347656 L 72.164062 313.402344 C 75.941406 314.632812 120.402344 327.859375 129.605469 330.488281 L 135.898438 332.289062 L 136.566406 335.085938 C 137.851562 340.492188 141.695312 343.585938 147.125 343.585938 C 151.003906 343.585938 152.972656 342.714844 155.433594 339.917969 C 157.566406 337.488281 158.570312 334.113281 158.121094 330.875 L 157.789062 328.480469 L 191.320312 317.445312 L 224.847656 306.40625 L 230.554688 307.871094 C 233.691406 308.679688 237.378906 309.734375 238.753906 310.21875 C 244.042969 312.082031 249.660156 310.554688 252.414062 306.496094 C 253.148438 305.414062 254.164062 304.59375 254.695312 304.652344 C 255.222656 304.714844 265.921875 305.710938 278.46875 306.871094 C 299.589844 308.820312 301.363281 309.066406 302.304688 310.179688 C 304.910156 313.261719 305.785156 313.9375 307.628906 314.285156 C 312.4375 315.183594 316.972656 311.433594 316.972656 306.558594 C 316.972656 302.113281 314.011719 299.128906 309.59375 299.128906 C 308.203125 299.128906 307.15625 298.839844 307.03125 298.417969 C 306.703125 297.296875 300.652344 279.722656 297.566406 270.917969 C 290.265625 250.097656 285.671875 236.214844 285.941406 235.777344 C 286.105469 235.511719 286.621094 235.296875 287.089844 235.296875 C 288.628906 235.296875 291.546875 233.503906 294.210938 230.925781 L 296.835938 228.386719 L 315.316406 240.71875 L 333.800781 253.046875 L 334.167969 255.863281 C 334.847656 261.089844 338.097656 264.027344 342.761719 263.625 C 349.984375 263.003906 353 254.828125 347.832031 249.878906 C 344.804688 246.984375 338.925781 247.285156 336.417969 250.464844 L 335.367188 251.800781 L 316.445312 239.183594 C 301.648438 229.320312 297.609375 226.371094 297.914062 225.660156 C 298.128906 225.160156 298.609375 223.476562 298.980469 221.917969 L 299.65625 219.082031 L 323.367188 209.921875 C 336.410156 204.882812 348.136719 200.285156 349.429688 199.703125 L 351.777344 198.644531 L 354.679688 200.222656 C 364.566406 205.597656 374.886719 195.125 369.222656 185.46875 C 367.222656 182.054688 364.089844 180.40625 359.722656 180.46875 L 356.53125 180.515625 L 355.632812 177.839844 C 355.140625 176.371094 352.003906 167.730469 348.664062 158.640625 C 336.921875 126.699219 328.953125 104.710938 328.980469 104.320312 C 328.996094 104.101562 330.085938 103.394531 331.40625 102.746094 C 339.636719 98.707031 337.070312 85.851562 327.855469 84.964844 C 324.148438 84.609375 321.4375 85.601562 319.128906 88.152344 L 317.210938 90.269531 L 288.714844 80.378906 C 273.039062 74.9375 255.722656 68.929688 250.234375 67.027344 C 242.132812 64.21875 239.777344 63.152344 237.746094 61.375 C 235.457031 59.371094 234.957031 59.183594 231.929688 59.183594 C 229.207031 59.183594 225.738281 58.179688 212.472656 53.5625 C 203.59375 50.46875 195.347656 47.621094 194.148438 47.234375 C 192.488281 46.699219 192.058594 46.308594 192.335938 45.589844 C 194.300781 40.515625 191.792969 34.660156 186.652344 32.328125 C 183.59375 30.9375 180.328125 30.988281 177.332031 32.46875 Z M 205.78125 53.277344 C 213.445312 55.984375 221.582031 58.761719 223.863281 59.445312 C 227.957031 60.675781 227.996094 60.707031 226.855469 61.738281 C 224.050781 64.273438 224.328125 69.96875 227.375 72.410156 L 229.007812 73.71875 L 227.003906 78.277344 C 223.632812 85.941406 213.882812 107.355469 209.011719 117.785156 C 204.859375 126.683594 204.285156 127.621094 203.214844 127.28125 C 198.160156 125.667969 196.03125 125.269531 193.902344 125.539062 C 191.867188 125.796875 191.476562 125.6875 191.476562 124.859375 C 191.476562 124.316406 190.839844 118.964844 190.066406 112.96875 C 188.179688 98.363281 183.492188 56.558594 183.492188 54.34375 C 183.492188 52.75 183.726562 52.519531 185.921875 51.933594 C 187.261719 51.574219 188.972656 50.625 189.730469 49.820312 C 190.488281 49.015625 191.273438 48.355469 191.476562 48.355469 C 191.679688 48.355469 198.117188 50.570312 205.78125 53.277344 Z M 175.488281 50.839844 C 175.472656 51.542969 175.003906 52.195312 153.070312 81.9375 C 144.96875 92.925781 138.089844 102.070312 137.785156 102.257812 C 136.148438 103.269531 125.027344 102.605469 115.039062 100.898438 C 109.234375 99.910156 97.8125 98.066406 89.65625 96.804688 C 81.5 95.542969 74.230469 94.375 73.503906 94.210938 C 71.1875 93.683594 72.335938 92.148438 76.25 90.539062 C 78.289062 89.699219 85.476562 86.691406 92.222656 83.855469 C 108.972656 76.8125 140.078125 63.785156 158.648438 56.03125 C 167.101562 52.503906 174.351562 49.746094 174.761719 49.902344 C 175.171875 50.058594 175.5 50.480469 175.488281 50.839844 Z M 181.78125 54.980469 C 181.78125 57.121094 184.71875 83.539062 187.820312 109.257812 C 188.929688 118.460938 189.757812 126.027344 189.660156 126.070312 C 185.851562 127.835938 183.285156 129.488281 181.300781 131.460938 L 178.824219 133.921875 L 162.941406 126.046875 L 147.054688 118.171875 L 147.066406 114.988281 C 147.082031 109.964844 144.863281 105.792969 141.15625 103.863281 L 139.601562 103.058594 L 142.898438 98.648438 C 144.710938 96.222656 148.230469 91.449219 150.722656 88.039062 C 153.214844 84.632812 159.765625 75.785156 165.273438 68.375 C 170.785156 60.96875 175.738281 54.234375 176.277344 53.410156 C 177.195312 52.007812 177.414062 51.945312 179.519531 52.480469 C 181.59375 53.007812 181.78125 53.210938 181.78125 54.980469 Z M 259.003906 72.078125 C 291.667969 83.488281 312.308594 90.539062 314.113281 90.898438 C 316.117188 91.300781 316.164062 91.378906 316.675781 95.183594 L 317.03125 97.84375 L 313.722656 98.800781 C 311.902344 99.328125 301.429688 102.96875 290.449219 106.894531 C 279.46875 110.820312 265.824219 115.652344 260.132812 117.632812 L 249.78125 121.234375 L 246.222656 110.871094 C 240.984375 95.597656 234.261719 75.207031 234.261719 74.578125 C 234.261719 74.277344 235.042969 73.628906 235.996094 73.136719 C 238.113281 72.042969 239.960938 69.164062 239.964844 66.960938 C 239.964844 65.636719 240.152344 65.40625 240.964844 65.726562 C 241.511719 65.945312 249.632812 68.804688 259.003906 72.078125 Z M 239.921875 97.945312 C 244.277344 110.953125 247.753906 121.683594 247.648438 121.792969 C 247.449219 122 229.433594 128.4375 217.976562 132.398438 L 211.675781 134.574219 L 208.816406 131.582031 L 205.960938 128.589844 L 208.128906 124.078125 C 210.574219 118.980469 228.523438 79.453125 229.914062 76.089844 C 230.414062 74.886719 231.085938 73.992188 231.414062 74.097656 C 231.738281 74.207031 235.566406 84.9375 239.921875 97.945312 Z M 86.804688 98.171875 C 93.707031 99.277344 105.011719 101.089844 111.933594 102.195312 C 118.851562 103.304688 125.355469 104.210938 126.386719 104.210938 L 128.261719 104.210938 L 126.699219 106.0625 C 123.21875 110.1875 122.589844 115.4375 125.007812 120.246094 L 126.417969 123.050781 L 124.808594 125.742188 C 122.613281 129.414062 108.296875 156.324219 105.257812 162.496094 C 103.386719 166.296875 102.589844 167.402344 101.929688 167.109375 C 101.453125 166.898438 99.386719 166.613281 97.335938 166.472656 L 93.609375 166.21875 L 90.570312 159.292969 C 88.902344 155.484375 82.777344 141.664062 76.96875 128.578125 L 66.402344 104.785156 L 68.757812 102.230469 C 70.054688 100.824219 71.117188 99.429688 71.117188 99.128906 C 71.117188 98.828125 71.371094 97.910156 71.6875 97.085938 C 72.085938 96.039062 72.558594 95.671875 73.253906 95.871094 C 73.804688 96.027344 79.902344 97.0625 86.804688 98.171875 Z M 318.261719 113.429688 C 313.457031 127.128906 300.121094 164.5625 299.355469 166.511719 C 299.003906 167.402344 298.453125 167.945312 298.117188 167.738281 C 297.785156 167.53125 289.414062 164.761719 279.511719 161.578125 L 261.511719 155.789062 L 256.105469 140.117188 C 253.128906 131.496094 250.65625 124.085938 250.605469 123.648438 C 250.558594 123.210938 251.289062 122.601562 252.230469 122.292969 C 254.746094 121.46875 306.121094 103.3125 312.125 101.125 L 317.257812 99.257812 L 319.492188 101.40625 L 321.722656 103.558594 Z M 329.835938 112.472656 C 334.457031 125.25 347.414062 160.605469 351.445312 171.441406 L 355.148438 181.394531 L 353.316406 182.984375 C 351.15625 184.859375 351.945312 184.976562 339.507812 180.933594 C 334.171875 179.199219 323.261719 175.679688 315.261719 173.117188 C 307.261719 170.554688 300.652344 168.40625 300.574219 168.34375 C 300.496094 168.285156 301.046875 166.71875 301.796875 164.863281 C 303.121094 161.589844 318.207031 119.289062 321.660156 109.164062 C 323.359375 104.191406 323.386719 104.148438 325.160156 104.320312 C 326.914062 104.492188 327.011719 104.660156 329.835938 112.472656 Z M 57.222656 106.792969 C 58.492188 106.984375 60.542969 106.78125 62.082031 106.308594 L 64.738281 105.492188 L 71.472656 120.667969 C 75.171875 129.011719 81.339844 142.894531 85.175781 151.515625 L 92.148438 167.1875 L 90.246094 168.167969 C 85.488281 170.625 82.011719 177.449219 82.808594 182.765625 C 83.574219 187.875 86.578125 192.121094 90.789062 194.046875 L 93.757812 195.402344 L 90.648438 205.519531 C 88.9375 211.082031 87.375 215.804688 87.171875 216.011719 C 86.96875 216.21875 81.925781 215.273438 75.964844 213.914062 C 44.273438 206.671875 32.390625 204 30.328125 203.660156 C 26.082031 202.953125 26.085938 202.957031 26.6875 200.933594 C 28.015625 196.445312 25.332031 189.878906 21.277344 187.707031 C 19.878906 186.957031 19.25 186.273438 19.441406 185.710938 C 19.605469 185.242188 26.96875 166.851562 35.808594 144.84375 L 51.878906 104.832031 L 53.453125 105.644531 C 54.316406 106.089844 56.011719 106.605469 57.222656 106.792969 Z M 162.570312 127.953125 L 178.164062 135.734375 L 177.429688 137.78125 C 176.3125 140.902344 176.464844 147.039062 177.746094 150.402344 C 179.113281 153.992188 182.148438 157.757812 184.855469 159.214844 C 185.988281 159.824219 186.914062 160.496094 186.914062 160.703125 C 186.914062 160.914062 185.648438 162.972656 184.101562 165.277344 C 179.277344 172.46875 151.109375 215.75 150.4375 217 L 149.800781 218.191406 L 147.550781 216.769531 C 146.3125 215.988281 144.183594 215.054688 142.820312 214.6875 L 140.339844 214.027344 L 139.65625 194.027344 C 139.277344 183.027344 138.605469 165.050781 138.160156 154.078125 C 136.894531 122.859375 136.839844 126.277344 138.605469 125.804688 C 140.863281 125.203125 143.890625 123.183594 144.941406 121.582031 C 145.453125 120.804688 146.121094 120.167969 146.425781 120.167969 C 146.730469 120.167969 153.996094 123.671875 162.570312 127.953125 Z M 253.980469 139.597656 C 258.582031 153.25 259.023438 154.90625 257.972656 154.585938 C 257.324219 154.390625 248.578125 151.550781 238.539062 148.273438 C 228.5 144.996094 218.722656 141.816406 216.8125 141.199219 C 213.753906 140.21875 213.265625 139.855469 212.753906 138.191406 L 212.171875 136.296875 L 230.203125 130.015625 C 240.121094 126.5625 248.363281 123.851562 248.519531 123.992188 C 248.675781 124.132812 251.132812 131.15625 253.980469 139.597656 Z M 129.480469 124.839844 C 130.164062 125.214844 131.753906 125.664062 133.007812 125.835938 L 135.289062 126.152344 L 135.960938 141.824219 C 136.902344 163.773438 138.433594 206.386719 138.429688 210.582031 L 138.425781 214.082031 L 136.371094 214.46875 C 135.238281 214.679688 133.164062 215.410156 131.765625 216.089844 L 129.222656 217.324219 L 128.261719 216.121094 C 127.734375 215.457031 122.878906 209.632812 117.46875 203.179688 L 107.632812 191.445312 L 109.054688 189.355469 C 113.480469 182.835938 111.769531 173.515625 105.316406 169 C 104.117188 168.160156 104.195312 167.980469 112.207031 152.851562 C 122.324219 133.746094 127.585938 124.15625 127.953125 124.15625 C 128.109375 124.15625 128.796875 124.464844 129.480469 124.839844 Z M 199.933594 136.597656 C 200.140625 138.023438 199.1875 138.277344 198.667969 136.933594 C 198.128906 135.523438 198.261719 134.871094 199.035156 135.125 C 199.429688 135.253906 199.832031 135.917969 199.933594 136.597656 Z M 237.636719 150.003906 C 249.691406 153.949219 259.726562 157.378906 259.933594 157.625 C 260.402344 158.171875 275.332031 201.964844 275.332031 202.789062 C 275.332031 203.113281 275.09375 203.378906 274.804688 203.378906 C 274.515625 203.378906 273.105469 204.277344 271.667969 205.371094 C 270.230469 206.464844 269.058594 207.152344 269.058594 206.898438 C 269.058594 206.453125 255.957031 194.902344 226.273438 169.175781 C 218.589844 162.511719 211.839844 156.628906 211.277344 156.097656 C 210.292969 155.175781 210.3125 155.019531 211.75 152.25 C 212.675781 150.46875 213.375 148.007812 213.570312 145.832031 C 213.832031 142.953125 214.058594 142.355469 214.808594 142.566406 C 215.308594 142.707031 225.585938 146.054688 237.636719 150.003906 Z M 223.695312 169.398438 C 245.558594 188.257812 252.445312 194.238281 260.496094 201.355469 C 264.734375 205.101562 268.253906 208.1875 268.316406 208.214844 C 268.382812 208.242188 267.746094 209.65625 266.902344 211.355469 C 264.8125 215.574219 264.527344 220.75 266.148438 225.039062 C 267.304688 228.101562 270.53125 232.214844 272.722656 233.421875 C 273.9375 234.09375 275.429688 230.589844 258.191406 267.496094 C 254.675781 275.019531 250.949219 283.019531 249.910156 285.269531 L 248.015625 289.367188 L 245.894531 288.78125 C 244.726562 288.460938 243.089844 288.332031 242.257812 288.496094 L 240.746094 288.800781 L 227.125 248.097656 C 219.632812 225.714844 213.621094 207.304688 213.757812 207.191406 C 213.898438 207.078125 217.820312 205.769531 222.472656 204.289062 C 230.542969 201.714844 230.976562 201.636719 231.726562 202.625 C 232.160156 203.199219 232.523438 203.859375 232.53125 204.101562 C 232.570312 205.0625 236.390625 206.796875 238.472656 206.796875 C 243.25 206.800781 246.570312 203.03125 246.101562 198.128906 C 245.355469 190.375 235.242188 188.542969 231.636719 195.511719 C 231.195312 196.359375 230.839844 197.664062 230.839844 198.410156 C 230.839844 199.65625 230.160156 199.980469 222.410156 202.429688 C 217.773438 203.890625 213.726562 205.089844 213.410156 205.089844 C 213.097656 205.089844 209.625 195.34375 205.691406 183.429688 C 200.082031 166.441406 198.734375 161.769531 199.429688 161.761719 C 200.824219 161.742188 205.113281 159.644531 207 158.054688 C 208.445312 156.839844 208.867188 156.726562 209.640625 157.339844 C 210.148438 157.742188 216.472656 163.167969 223.695312 169.398438 Z M 281.800781 164.378906 C 290.324219 167.074219 297.476562 169.453125 297.703125 169.667969 C 297.929688 169.882812 295.554688 177.203125 292.425781 185.933594 C 289.300781 194.664062 286.742188 201.839844 286.742188 201.878906 C 286.742188 201.921875 284.589844 201.96875 281.960938 201.988281 L 277.183594 202.019531 L 273.320312 190.589844 C 271.199219 184.300781 267.828125 174.480469 265.835938 168.765625 C 263.84375 163.050781 262.210938 158.238281 262.210938 158.070312 C 262.210938 157.90625 263.132812 158.152344 264.261719 158.625 C 265.386719 159.09375 273.28125 161.683594 281.800781 164.378906 Z M 194.226562 162.351562 L 196.898438 162.359375 L 203.964844 184.023438 C 207.855469 195.9375 210.917969 205.800781 210.777344 205.945312 C 210.492188 206.226562 205.121094 208.089844 175.246094 218.253906 C 164.277344 221.984375 155.136719 225.039062 154.9375 225.039062 C 154.734375 225.039062 153.753906 223.726562 152.757812 222.121094 L 150.941406 219.207031 L 164.832031 198.042969 C 172.472656 186.402344 180.972656 173.367188 183.722656 169.074219 C 188.496094 161.617188 188.78125 161.292969 190.136719 161.804688 C 190.914062 162.101562 192.753906 162.347656 194.226562 162.351562 Z M 318.046875 175.976562 C 327.652344 179.085938 338.917969 182.6875 343.078125 183.980469 C 350.007812 186.136719 350.59375 186.425781 350.066406 187.410156 C 349.222656 188.984375 349.363281 192.851562 350.34375 195.203125 C 351.363281 197.644531 351.367188 197.679688 350.589844 197.679688 C 350.257812 197.679688 338.707031 202.058594 324.929688 207.40625 C 311.148438 212.757812 299.617188 216.972656 299.296875 216.777344 C 298.980469 216.582031 298.71875 215.988281 298.714844 215.457031 C 298.703125 213.429688 295.933594 208.695312 293.398438 206.371094 C 291.949219 205.039062 290.5625 203.945312 290.320312 203.941406 C 290.078125 203.9375 289.527344 203.707031 289.09375 203.433594 C 288.433594 203.015625 288.453125 202.542969 289.21875 200.453125 C 289.71875 199.082031 291.5625 193.859375 293.3125 188.847656 C 297.625 176.503906 299.957031 170.324219 300.296875 170.324219 C 300.453125 170.324219 308.441406 172.867188 318.046875 175.976562 Z M 101.273438 175.195312 C 101.453125 176.125 101.355469 176.167969 100.558594 175.507812 C 99.46875 174.601562 99.332031 173.546875 100.351562 173.886719 C 100.742188 174.015625 101.15625 174.605469 101.273438 175.195312 Z M 117.621094 206.144531 C 126.289062 216.515625 127.695312 218.453125 127.113281 219.253906 C 125.78125 221.085938 124.167969 223.621094 123.984375 224.160156 C 123.761719 224.828125 104.328125 220.523438 103.414062 219.605469 C 102.613281 218.804688 99.328125 197.027344 99.816406 195.757812 C 100.011719 195.246094 100.6875 194.832031 101.316406 194.832031 C 101.945312 194.832031 103.300781 194.324219 104.320312 193.703125 C 105.777344 192.816406 106.316406 192.722656 106.8125 193.273438 C 107.160156 193.660156 112.023438 199.453125 117.621094 206.144531 Z M 97.601562 196.683594 C 97.746094 197.386719 98.535156 202.324219 99.355469 207.652344 C 100.175781 212.984375 100.976562 217.792969 101.136719 218.339844 C 101.519531 219.65625 100.585938 219.609375 94.21875 218.011719 C 90.378906 217.050781 89.140625 216.515625 89.3125 215.894531 C 90.355469 212.109375 95.207031 196.21875 95.429688 195.859375 C 96.003906 194.929688 97.34375 195.4375 97.601562 196.683594 Z M 31.183594 205.65625 C 33.851562 206.285156 46.816406 209.230469 59.992188 212.203125 C 73.167969 215.179688 84.542969 217.753906 85.265625 217.925781 C 86.175781 218.140625 86.496094 218.539062 86.304688 219.214844 C 85.894531 220.648438 63.90625 290.34375 62.765625 293.8125 L 61.800781 296.765625 L 57.9375 296.949219 L 54.074219 297.136719 L 51.539062 291.148438 C 48.519531 284.015625 34.484375 249.675781 24.988281 226.175781 L 18.191406 209.363281 L 20.339844 208.335938 C 21.519531 207.773438 23.074219 206.683594 23.796875 205.914062 C 25.378906 204.234375 25.160156 204.242188 31.183594 205.65625 Z M 225.292969 248.511719 L 238.859375 289.085938 L 237.273438 290.394531 C 236.402344 291.117188 235.300781 291.644531 234.832031 291.570312 C 234.359375 291.496094 230.257812 289 225.710938 286.019531 C 221.167969 283.042969 209.820312 275.605469 200.5 269.492188 C 191.175781 263.378906 176.722656 253.910156 168.378906 248.449219 C 156.574219 240.722656 153.296875 238.324219 153.601562 237.621094 C 154.734375 235 155.53125 230.777344 155.234375 228.96875 L 154.898438 226.917969 L 178.179688 219.109375 C 190.984375 214.816406 203.515625 210.570312 206.023438 209.675781 C 208.535156 208.78125 210.84375 208.023438 211.160156 207.992188 C 211.476562 207.964844 217.835938 226.195312 225.292969 248.511719 Z M 286.742188 212.890625 C 286.742188 213.707031 286.605469 213.695312 285.601562 212.785156 C 284.972656 212.214844 284.460938 211.527344 284.460938 211.25 C 284.460938 210.972656 284.972656 211.023438 285.601562 211.359375 C 286.226562 211.695312 286.742188 212.382812 286.742188 212.890625 Z M 95.320312 220.113281 C 98.554688 220.851562 101.167969 221.753906 101.410156 222.222656 C 101.644531 222.675781 103.398438 232.507812 105.308594 244.078125 L 108.773438 265.113281 L 106.753906 267.128906 C 104.480469 269.402344 103.925781 270.941406 104.40625 273.628906 L 104.738281 275.476562 L 94.34375 281.136719 C 88.628906 284.25 79.636719 289.1875 74.363281 292.109375 C 64.644531 297.492188 62.617188 298.304688 63.621094 296.421875 C 64.113281 295.496094 88.230469 219.675781 88.230469 219.050781 C 88.230469 218.585938 89.371094 218.757812 95.320312 220.113281 Z M 110.375 223.566406 C 113.726562 224.324219 117.941406 225.238281 119.746094 225.601562 L 123.027344 226.257812 L 123.027344 229.820312 C 123.027344 234.890625 124.40625 238.441406 127.636719 241.667969 L 130.347656 244.375 L 128.742188 246.394531 C 127.863281 247.503906 124.394531 252.238281 121.039062 256.914062 L 114.941406 265.414062 L 112.851562 265.09375 C 111.703125 264.917969 110.714844 264.738281 110.65625 264.699219 C 110.21875 264.398438 103.402344 222.1875 103.789062 222.1875 C 104.058594 222.1875 107.023438 222.808594 110.375 223.566406 Z M 143.363281 223.636719 C 143.878906 224.972656 143.324219 225.132812 142.535156 223.871094 C 142.097656 223.167969 142.058594 222.757812 142.433594 222.757812 C 142.761719 222.757812 143.179688 223.152344 143.363281 223.636719 Z M 280.039062 235.757812 L 283.605469 236.152344 L 289.417969 252.964844 C 292.617188 262.210938 297.589844 276.550781 300.46875 284.828125 C 305.632812 299.683594 305.6875 299.890625 304.554688 300.785156 C 303.15625 301.890625 301.574219 304.925781 301.574219 306.492188 C 301.574219 307.164062 301.277344 307.539062 300.859375 307.394531 C 300.46875 307.257812 294.242188 306.609375 287.027344 305.953125 C 279.808594 305.300781 269.542969 304.320312 264.210938 303.78125 L 254.519531 302.796875 L 254.695312 300.738281 C 254.972656 297.542969 253.816406 294.253906 251.589844 291.894531 C 249.925781 290.132812 249.671875 289.558594 250.179688 288.742188 C 250.777344 287.785156 263.136719 261.402344 269.339844 247.835938 C 274.773438 235.957031 275.417969 234.710938 275.949219 235.039062 C 276.238281 235.21875 278.082031 235.542969 280.039062 235.757812 Z M 164.5 248.210938 C 197.554688 269.898438 218.046875 283.257812 226.84375 288.855469 C 230.453125 291.152344 233.496094 293.105469 233.609375 293.195312 C 233.71875 293.285156 233.367188 294.527344 232.820312 295.957031 C 232.207031 297.558594 231.949219 299.300781 232.148438 300.519531 L 232.46875 302.492188 L 229.230469 303.433594 C 227.269531 304.003906 225.085938 304.246094 223.707031 304.050781 C 219.378906 303.433594 145.371094 282.914062 144.550781 282.105469 C 144.195312 281.75 143.332031 269.328125 142.296875 249.59375 L 142.136719 246.507812 L 144.527344 245.707031 C 145.84375 245.269531 148.027344 243.914062 149.375 242.691406 C 150.726562 241.472656 152.015625 240.460938 152.234375 240.449219 C 152.457031 240.4375 157.976562 243.929688 164.5 248.210938 Z M 136.882812 246.316406 C 139.453125 246.820312 140.234375 247.21875 140.410156 248.113281 C 140.792969 250.066406 142.371094 281.132812 142.101562 281.402344 C 141.960938 281.542969 138.828125 280.804688 135.144531 279.761719 C 131.460938 278.714844 126.285156 277.292969 123.644531 276.59375 L 118.84375 275.328125 L 118.742188 272.46875 C 118.679688 270.644531 118.230469 269.046875 117.503906 268.050781 L 116.367188 266.488281 L 124.117188 255.738281 C 129.726562 247.957031 132.105469 245.082031 132.722656 245.328125 C 133.195312 245.519531 135.066406 245.960938 136.882812 246.316406 Z M 107.125 278.183594 C 109.511719 279.949219 113.722656 279.949219 116.109375 278.183594 L 117.847656 276.902344 L 129.878906 280.257812 C 136.5 282.105469 142.042969 283.742188 142.199219 283.898438 C 142.480469 284.179688 144.664062 315.148438 144.691406 319.207031 C 144.703125 321.109375 144.46875 321.453125 142.492188 322.460938 C 139.785156 323.839844 137.511719 326.449219 137.003906 328.753906 C 136.796875 329.699219 136.433594 330.476562 136.195312 330.476562 C 135.785156 330.476562 129.289062 328.566406 87.535156 316.179688 L 69.441406 310.8125 L 69.761719 308.792969 C 70.21875 305.914062 69.085938 302.316406 67.085938 300.320312 L 65.363281 298.597656 L 69.523438 296.515625 C 75.15625 293.691406 103.78125 278.035156 104.457031 277.40625 C 105.183594 276.730469 105.144531 276.71875 107.125 278.183594 Z M 163.949219 289.742188 C 190.605469 297.261719 197.625 299.1875 209.445312 302.234375 C 215.09375 303.6875 220.160156 305.058594 220.703125 305.28125 C 221.34375 305.542969 210.417969 309.4375 189.472656 316.417969 L 157.253906 327.148438 L 155.753906 325.367188 C 153.910156 323.175781 150.460938 321.355469 148.148438 321.355469 C 146.667969 321.355469 146.414062 321.144531 146.414062 319.894531 C 146.414062 317.683594 144.765625 290.726562 144.421875 287.304688 C 144.257812 285.65625 144.25 284.3125 144.40625 284.3125 C 144.5625 284.3125 153.355469 286.753906 163.949219 289.742188 Z M 233.714844 305.449219 C 234.066406 306.101562 234.269531 306.722656 234.164062 306.824219 C 234.058594 306.929688 232.71875 306.730469 231.1875 306.378906 L 228.402344 305.742188 L 230.332031 305.042969 C 232.960938 304.09375 232.992188 304.097656 233.714844 305.449219 Z M 233.714844 305.449219 " fill-opacity="1" fill-rule="evenodd"/></g></svg>